<svg width="160" height="160" viewBox="0 0 160 160" fill="none" xmlns="http://www.w3.org/2000/svg">
<rect width="160" height="160" fill="#FDE047"/>
<path d="M47 23.75H112C114.623 23.75 116.75 25.8766 116.75 28.5V132.5C116.75 135.123 114.623 137.25 112 137.25H47C44.3766 137.25 42.25 135.123 42.25 132.5V28.5C42.25 25.8766 44.3766 23.75 47 23.75Z" fill="white" stroke="#1C1917" stroke-width="3.5"/>
<path d="M80.4551 92.3164C78.8652 92.3164 78.0703 91.3711 78.0703 89.4805V56.8672C78.0703 53.1719 79.918 51.3242 83.6133 51.3242H90.4453V36.0488C90.4453 34.2441 91.2402 33.3418 92.8301 33.3418C94.5059 33.3418 95.3438 34.2441 95.3438 36.0488V51.3242H101.789C103.594 51.3242 104.947 51.7969 105.85 52.7422C106.795 53.6875 107.268 55.0625 107.268 56.8672V85.7422C107.268 87.8047 106.773 89.3301 105.785 90.3184C104.84 91.3496 103.336 91.8652 101.273 91.8652H99.0176C97.4277 91.8652 96.6328 91.0488 96.6328 89.416C96.6328 88.5566 96.8047 87.9121 97.1484 87.4824C97.5352 87.0957 98.1367 86.9023 98.9531 86.9023H100.436C101.639 86.9023 102.283 86.2363 102.369 84.9043V57.8984C102.369 56.7383 101.768 56.1152 100.564 56.0293H84.7734C84.1719 56.0293 83.7207 56.1797 83.4199 56.4805C83.1191 56.7383 82.9473 57.2109 82.9043 57.8984V89.4805C82.9043 91.3711 82.0879 92.3164 80.4551 92.3164ZM70.207 67.6953V64.0215H59.3145V69.8867L70.207 67.6953ZM65.1797 91.9941C64.3633 91.9941 63.7617 91.8008 63.375 91.4141C63.0312 91.0703 62.8594 90.5117 62.8594 89.7383C62.8594 88.2344 63.6328 87.4824 65.1797 87.4824H67.7578C69.3047 87.4824 70.1211 86.666 70.207 85.0332L70.2715 75.4941C67.6504 78.3301 64.2773 81.1016 60.1523 83.8086C56.2422 86.3867 53.793 87.6758 52.8047 87.6758C51.3008 87.6758 50.5488 86.9023 50.5488 85.3555C50.5488 84.4102 51.5586 83.4434 53.5781 82.4551C59.8516 79.4473 64.9648 75.8379 68.918 71.627L68.7891 71.4336C65.0508 72.6797 61.1406 73.8613 57.0586 74.9785L52.5469 75.9453C51.1289 75.9453 50.4199 75.1504 50.4199 73.5605C50.4199 72.916 50.8066 72.3574 51.5801 71.8848C52.3965 71.4121 53.5137 71.0898 54.9316 70.918V45.459C54.9316 43.7832 55.3613 42.5586 56.2207 41.7852C57.0801 41.0117 58.4121 40.625 60.2168 40.625L61.3125 36.2422C61.7852 34.4375 62.6016 33.5352 63.7617 33.5352C65.3945 33.5352 66.2109 34.2441 66.2109 35.6621C66.2109 36.3496 65.5879 38.0039 64.3418 40.625H69.7559C73.0215 40.625 74.6543 42.2578 74.6543 45.5234V65.0527C76.0293 65.0527 76.7168 65.6543 76.7168 66.8574C76.7168 67.459 76.0723 68.6406 74.7832 70.4023L74.6543 70.5312V86.1289C74.6543 88.2344 74.1816 89.7598 73.2363 90.7051C72.291 91.6934 70.7871 92.123 68.7246 91.9941H65.1797ZM70.207 59.7676V54.5469H59.3145V59.7676H70.207ZM70.207 50.293V47.1992C70.207 45.9531 69.541 45.2871 68.209 45.2012H61.377C60.7324 45.2012 60.2168 45.373 59.8301 45.7168C59.4863 46.0605 59.3145 46.5547 59.3145 47.1992V50.293H70.207ZM90.4453 81.875C87.3945 81.875 85.8691 80.3066 85.8691 77.1699V65.9551C85.8691 62.8184 87.3945 61.25 90.4453 61.25H95.0215C98.0723 61.25 99.5977 62.8184 99.5977 65.9551V77.1699C99.5977 80.3066 98.0723 81.875 95.0215 81.875H90.4453ZM93.9258 77.2988C94.4414 77.2988 94.8281 77.1699 95.0859 76.9121C95.3438 76.6543 95.4941 76.2246 95.5371 75.623V67.502C95.5371 66.5137 95 65.9766 93.9258 65.8906H91.541C91.0254 65.8906 90.6387 66.0195 90.3809 66.2773C90.123 66.5352 89.9727 66.9434 89.9297 67.502V75.623C89.9297 76.7402 90.4668 77.2988 91.541 77.2988H93.9258ZM84.6445 48.0371C83.5273 48.0371 82.3672 46.791 81.1641 44.2988L79.7461 41.3984C79.1445 40.1953 78.8438 39.4004 78.8438 39.0137C78.8438 37.7246 79.7031 37.0801 81.4219 37.0801C82.3242 37.0801 83.6133 38.4766 85.2891 41.2695C85.9766 42.3867 86.4707 43.3535 86.7715 44.1699C87.1152 44.9863 87.2871 45.5664 87.2871 45.9102C87.2871 47.3281 86.4062 48.0371 84.6445 48.0371ZM102.305 48.2305C100.543 48.2305 99.6621 47.5 99.6621 46.0391C99.6621 45.7383 99.791 45.3301 100.049 44.8145C100.307 44.2559 100.5 43.8047 100.629 43.4609C101.918 40.625 102.584 39.1211 102.627 38.9492C103.271 37.4883 104.217 36.7578 105.463 36.7578C107.268 36.7578 108.17 37.5098 108.17 39.0137C108.17 39.7441 107.439 41.4629 105.979 44.1699C104.518 46.877 103.293 48.2305 102.305 48.2305Z" fill="#1C1917"/>
<path d="M40.5 62.75H118.5C121.123 62.75 123.25 64.8766 123.25 67.5V119.5C123.25 122.123 121.123 124.25 118.5 124.25H40.5C37.8766 124.25 35.75 122.123 35.75 119.5V67.5C35.75 64.8766 37.8766 62.75 40.5 62.75Z" fill="white" stroke="#1C1917" stroke-width="3.5"/>
</svg>
