<svg width="160" height="80" viewBox="0 0 160 80" fill="none" xmlns="http://www.w3.org/2000/svg">
<rect width="160" height="80" fill="#FDE047"/>
<path d="M24 13.75H54C55.2426 13.75 56.25 14.7574 56.25 16V64C56.25 65.2426 55.2426 66.25 54 66.25H24C22.7574 66.25 21.75 65.2426 21.75 64V16C21.75 14.7574 22.7574 13.75 24 13.75Z" fill="white" stroke="#1C1917" stroke-width="1.5"/>
<rect x="27.75" y="16.75" width="22.5" height="10.5" rx="2.25" stroke="#1C1917" stroke-width="1.5"/>
<path d="M21 31.75H57C58.2426 31.75 59.25 32.7574 59.25 34V58C59.25 59.2426 58.2426 60.25 57 60.25H21C19.7574 60.25 18.75 59.2426 18.75 58V34C18.75 32.7574 19.7574 31.75 21 31.75Z" fill="white" stroke="#1C1917" stroke-width="1.5"/>
<line x1="18" y1="39.25" x2="60" y2="39.25" stroke="#1C1917" stroke-width="1.5"/>
<path d="M39.252 55.5176C39.1335 55.5176 39.0332 55.4766 38.9512 55.3945C38.8691 55.3216 38.8281 55.2214 38.8281 55.0938V54.1367C37.862 54.0729 36.946 53.8587 36.0801 53.4941C35.9707 53.4486 35.875 53.3711 35.793 53.2617C35.7201 53.1523 35.6836 53.0384 35.6836 52.9199C35.6836 52.7559 35.7383 52.6191 35.8477 52.5098C35.957 52.3913 36.0938 52.332 36.2578 52.332C36.3581 52.332 36.4447 52.3503 36.5176 52.3867C37.2467 52.7148 38.0169 52.8971 38.8281 52.9336V49.8164C38.1992 49.6523 37.6842 49.4746 37.2832 49.2832C36.791 49.0645 36.4173 48.7728 36.1621 48.4082C35.9069 48.0345 35.7793 47.6061 35.7793 47.123C35.7793 46.6491 35.8978 46.207 36.1348 45.7969C36.3809 45.3776 36.7363 45.0404 37.2012 44.7852C37.666 44.5299 38.2083 44.375 38.8281 44.3203V43.377C38.8281 43.2585 38.8691 43.1582 38.9512 43.0762C39.0332 42.985 39.1335 42.9395 39.252 42.9395C39.3704 42.9395 39.4707 42.985 39.5527 43.0762C39.6439 43.1582 39.6895 43.2585 39.6895 43.377V44.3066C40.5827 44.3522 41.3711 44.5026 42.0547 44.7578C42.319 44.8581 42.4512 45.0449 42.4512 45.3184C42.4512 45.4642 42.3965 45.6009 42.2871 45.7285C42.1777 45.847 42.0456 45.9062 41.8906 45.9062C41.8268 45.9062 41.7539 45.888 41.6719 45.8516C41.0703 45.6328 40.4095 45.5098 39.6895 45.4824V48.709C40.3092 48.8548 40.8516 49.0234 41.3164 49.2148C41.7904 49.4154 42.1641 49.7025 42.4375 50.0762C42.7109 50.4408 42.8477 50.9056 42.8477 51.4707C42.8477 51.9538 42.7201 52.3958 42.4648 52.7969C42.2005 53.1888 41.8268 53.5033 41.3438 53.7402C40.8607 53.9681 40.3092 54.1003 39.6895 54.1367V55.0938C39.6895 55.2122 39.6484 55.3125 39.5664 55.3945C39.4844 55.4766 39.3796 55.5176 39.252 55.5176ZM39.6895 52.9336C40.9564 52.8424 41.5898 52.3275 41.5898 51.3887C41.5898 51.0605 41.4395 50.7962 41.1387 50.5957C40.847 50.3952 40.3639 50.2038 39.6895 50.0215V52.9336ZM38.8281 45.5234C38.263 45.6055 37.8255 45.7786 37.5156 46.043C37.2057 46.3073 37.0508 46.6354 37.0508 47.0273C37.0508 47.4102 37.1921 47.7109 37.4746 47.9297C37.7572 48.1484 38.2083 48.3398 38.8281 48.5039V45.5234Z" fill="#1C1917"/>
<path d="M75.1562 63.082C74.9831 63.082 74.8327 63.0228 74.7051 62.9043C74.5866 62.7767 74.5273 62.6263 74.5273 62.4531V54.6328H71.752C71.5879 54.6328 71.4466 54.5781 71.3281 54.4688C71.2188 54.3503 71.1641 54.209 71.1641 54.0449C71.1641 53.8809 71.2188 53.7396 71.3281 53.6211C71.4466 53.5026 71.5879 53.4434 71.752 53.4434H78.5605C78.7246 53.4434 78.8659 53.5026 78.9844 53.6211C79.1029 53.7396 79.1621 53.8809 79.1621 54.0449C79.1621 54.209 79.1029 54.3503 78.9844 54.4688C78.8659 54.5781 78.7246 54.6328 78.5605 54.6328H75.7988V62.4531C75.7988 62.6263 75.735 62.7767 75.6074 62.9043C75.4798 63.0228 75.3294 63.082 75.1562 63.082ZM81.0898 63.1504C80.6979 63.1504 80.3288 63.0684 79.9824 62.9043C79.627 62.7402 79.349 62.4987 79.1484 62.1797C78.9479 61.8607 78.8477 61.4961 78.8477 61.0859C78.8477 60.375 79.1211 59.8281 79.668 59.4453C80.224 59.0534 81.0033 58.8574 82.0059 58.8574H83.6465V58.7617C83.6465 58.1784 83.5007 57.7546 83.209 57.4902C82.9264 57.2168 82.4661 57.0801 81.8281 57.0801C81.5 57.0801 81.2038 57.1074 80.9395 57.1621C80.6751 57.2077 80.3652 57.2897 80.0098 57.4082L79.832 57.4355C79.6953 57.4355 79.5723 57.3854 79.4629 57.2852C79.3626 57.1758 79.3125 57.0482 79.3125 56.9023C79.3125 56.6471 79.4355 56.4694 79.6816 56.3691C80.4473 56.041 81.2357 55.877 82.0469 55.877C82.6758 55.877 83.2135 56.0046 83.6602 56.2598C84.0794 56.5059 84.3939 56.834 84.6035 57.2441C84.8132 57.6452 84.918 58.0918 84.918 58.584V62.4531C84.918 62.6263 84.8542 62.7767 84.7266 62.9043C84.599 63.0228 84.4486 63.082 84.2754 63.082C84.1022 63.082 83.9518 63.0228 83.8242 62.9043C83.7057 62.7767 83.6465 62.6263 83.6465 62.4531V62.125C82.9902 62.8086 82.138 63.1504 81.0898 63.1504ZM81.5547 62.0293C81.9466 62.0293 82.3249 61.9382 82.6895 61.7559C83.0632 61.5645 83.3822 61.3184 83.6465 61.0176V59.8828H82.1699C80.8027 59.8828 80.1191 60.2383 80.1191 60.9492C80.1191 61.6693 80.5977 62.0293 81.5547 62.0293ZM87.6113 63.082C87.4382 63.082 87.2878 63.0228 87.1602 62.9043C87.0417 62.7767 86.9824 62.6263 86.9824 62.4531V56.5879C86.9824 56.4147 87.0417 56.2643 87.1602 56.1367C87.2878 56.0091 87.4382 55.9453 87.6113 55.9453C87.7845 55.9453 87.9349 56.0091 88.0625 56.1367C88.1901 56.2643 88.2539 56.4147 88.2539 56.5879V57.1074C88.6276 56.7064 89.015 56.401 89.416 56.1914C89.8171 55.9818 90.2728 55.877 90.7832 55.877C91.2845 55.877 91.7266 55.9954 92.1094 56.2324C92.474 56.4694 92.752 56.793 92.9434 57.2031C93.1439 57.6133 93.2441 58.069 93.2441 58.5703V62.4531C93.2441 62.6263 93.1803 62.7767 93.0527 62.9043C92.9251 63.0228 92.7747 63.082 92.6016 63.082C92.4284 63.082 92.278 63.0228 92.1504 62.9043C92.0319 62.7767 91.9727 62.6263 91.9727 62.4531V58.707C91.9727 57.6042 91.4759 57.0527 90.4824 57.0527C90.0449 57.0527 89.6484 57.1621 89.293 57.3809C88.9466 57.5996 88.6003 57.9232 88.2539 58.3516V62.4531C88.2539 62.6263 88.1901 62.7767 88.0625 62.9043C87.9349 63.0228 87.7845 63.082 87.6113 63.082ZM98.5762 66.2949C98.0658 66.2949 97.5371 66.2266 96.9902 66.0898C96.4525 65.9531 96.0059 65.7845 95.6504 65.584C95.4772 65.4746 95.3906 65.3105 95.3906 65.0918C95.3906 64.946 95.4453 64.8138 95.5547 64.6953C95.6641 64.5768 95.7962 64.5176 95.9512 64.5176C96.0241 64.5176 96.1061 64.5358 96.1973 64.5723C96.9082 64.9186 97.6602 65.0918 98.4531 65.0918C99.8385 65.0918 100.531 64.3535 100.531 62.877V62.002C99.9023 62.6764 99.1276 63.0137 98.207 63.0137C97.6602 63.0137 97.1406 62.877 96.6484 62.6035C96.1107 62.321 95.6823 61.9108 95.3633 61.373C95.0443 60.8262 94.8848 60.1836 94.8848 59.4453C94.8848 58.6797 95.0488 58.0234 95.377 57.4766C95.696 56.957 96.1061 56.5605 96.6074 56.2871C97.1178 56.0137 97.651 55.877 98.207 55.877C99.1276 55.877 99.9023 56.2142 100.531 56.8887V56.5879C100.531 56.4147 100.59 56.2643 100.709 56.1367C100.837 56.0091 100.987 55.9453 101.16 55.9453C101.333 55.9453 101.484 56.0091 101.611 56.1367C101.739 56.2643 101.803 56.4147 101.803 56.5879V62.6992C101.803 63.8477 101.525 64.7318 100.969 65.3516C100.413 65.9805 99.6152 66.2949 98.5762 66.2949ZM98.4668 61.8516C98.8678 61.8516 99.2279 61.7695 99.5469 61.6055C99.875 61.4323 100.203 61.1816 100.531 60.8535V58.0371C100.203 57.709 99.875 57.4629 99.5469 57.2988C99.2279 57.1257 98.8678 57.0391 98.4668 57.0391C97.765 57.0391 97.2044 57.2487 96.7852 57.668C96.3659 58.0872 96.1562 58.6797 96.1562 59.4453C96.1562 60.2109 96.3659 60.8034 96.7852 61.2227C97.2044 61.6419 97.765 61.8516 98.4668 61.8516ZM109.268 63.1504C108.602 63.1504 107.992 62.9954 107.436 62.6855C107.235 62.5579 107.135 62.3848 107.135 62.166C107.135 62.0202 107.185 61.888 107.285 61.7695C107.385 61.651 107.513 61.5918 107.668 61.5918C107.768 61.5918 107.85 61.61 107.914 61.6465C108.324 61.847 108.748 61.9473 109.186 61.9473C109.714 61.9473 110.12 61.7969 110.402 61.4961C110.685 61.1953 110.826 60.6758 110.826 59.9375V54.0176C110.826 53.8444 110.885 53.694 111.004 53.5664C111.132 53.4388 111.282 53.375 111.455 53.375C111.628 53.375 111.779 53.4388 111.906 53.5664C112.034 53.694 112.098 53.8444 112.098 54.0176V59.8555C112.098 60.9401 111.856 61.7604 111.373 62.3164C110.899 62.8724 110.197 63.1504 109.268 63.1504ZM116.801 63.1504C116.309 63.1504 115.871 63.0319 115.488 62.7949C115.124 62.5579 114.841 62.2344 114.641 61.8242C114.44 61.4141 114.34 60.9583 114.34 60.457V56.5742C114.34 56.401 114.404 56.2552 114.531 56.1367C114.659 56.0091 114.809 55.9453 114.982 55.9453C115.156 55.9453 115.301 56.0091 115.42 56.1367C115.548 56.2552 115.611 56.401 115.611 56.5742V60.3203C115.611 61.4232 116.108 61.9746 117.102 61.9746C117.539 61.9746 117.931 61.8652 118.277 61.6465C118.633 61.4277 118.984 61.1042 119.33 60.6758V56.5742C119.33 56.401 119.394 56.2552 119.521 56.1367C119.649 56.0091 119.799 55.9453 119.973 55.9453C120.146 55.9453 120.292 56.0091 120.41 56.1367C120.538 56.2552 120.602 56.401 120.602 56.5742V62.4395C120.602 62.6126 120.538 62.763 120.41 62.8906C120.292 63.0182 120.146 63.082 119.973 63.082C119.799 63.082 119.649 63.0182 119.521 62.8906C119.394 62.763 119.33 62.6126 119.33 62.4395V61.9199C118.956 62.321 118.569 62.6263 118.168 62.8359C117.767 63.0456 117.311 63.1504 116.801 63.1504ZM124.525 63.1504C124.133 63.1504 123.764 63.0684 123.418 62.9043C123.062 62.7402 122.785 62.4987 122.584 62.1797C122.383 61.8607 122.283 61.4961 122.283 61.0859C122.283 60.375 122.557 59.8281 123.104 59.4453C123.66 59.0534 124.439 58.8574 125.441 58.8574H127.082V58.7617C127.082 58.1784 126.936 57.7546 126.645 57.4902C126.362 57.2168 125.902 57.0801 125.264 57.0801C124.936 57.0801 124.639 57.1074 124.375 57.1621C124.111 57.2077 123.801 57.2897 123.445 57.4082L123.268 57.4355C123.131 57.4355 123.008 57.3854 122.898 57.2852C122.798 57.1758 122.748 57.0482 122.748 56.9023C122.748 56.6471 122.871 56.4694 123.117 56.3691C123.883 56.041 124.671 55.877 125.482 55.877C126.111 55.877 126.649 56.0046 127.096 56.2598C127.515 56.5059 127.829 56.834 128.039 57.2441C128.249 57.6452 128.354 58.0918 128.354 58.584V62.4531C128.354 62.6263 128.29 62.7767 128.162 62.9043C128.035 63.0228 127.884 63.082 127.711 63.082C127.538 63.082 127.387 63.0228 127.26 62.9043C127.141 62.7767 127.082 62.6263 127.082 62.4531V62.125C126.426 62.8086 125.574 63.1504 124.525 63.1504ZM124.99 62.0293C125.382 62.0293 125.76 61.9382 126.125 61.7559C126.499 61.5645 126.818 61.3184 127.082 61.0176V59.8828H125.605C124.238 59.8828 123.555 60.2383 123.555 60.9492C123.555 61.6693 124.033 62.0293 124.99 62.0293ZM131.047 63.082C130.874 63.082 130.723 63.0228 130.596 62.9043C130.477 62.7767 130.418 62.6263 130.418 62.4531V56.5879C130.418 56.4147 130.477 56.2643 130.596 56.1367C130.723 56.0091 130.874 55.9453 131.047 55.9453C131.22 55.9453 131.37 56.0091 131.498 56.1367C131.626 56.2643 131.689 56.4147 131.689 56.5879V57.1074C132.063 56.7064 132.451 56.401 132.852 56.1914C133.253 55.9818 133.708 55.877 134.219 55.877C134.72 55.877 135.162 55.9954 135.545 56.2324C135.91 56.4694 136.188 56.793 136.379 57.2031C136.579 57.6133 136.68 58.069 136.68 58.5703V62.4531C136.68 62.6263 136.616 62.7767 136.488 62.9043C136.361 63.0228 136.21 63.082 136.037 63.082C135.864 63.082 135.714 63.0228 135.586 62.9043C135.467 62.7767 135.408 62.6263 135.408 62.4531V58.707C135.408 57.6042 134.911 57.0527 133.918 57.0527C133.48 57.0527 133.084 57.1621 132.729 57.3809C132.382 57.5996 132.036 57.9232 131.689 58.3516V62.4531C131.689 62.6263 131.626 62.7767 131.498 62.9043C131.37 63.0228 131.22 63.082 131.047 63.082Z" fill="#1C1917"/>
<path d="M87.3164 49.4453C86.4492 49.4453 86.0156 48.9297 86.0156 47.8984V30.1094C86.0156 28.0938 87.0234 27.0859 89.0391 27.0859H92.7656V18.7539C92.7656 17.7695 93.1992 17.2773 94.0664 17.2773C94.9805 17.2773 95.4375 17.7695 95.4375 18.7539V27.0859H98.9531C99.9375 27.0859 100.676 27.3438 101.168 27.8594C101.684 28.375 101.941 29.125 101.941 30.1094V45.8594C101.941 46.9844 101.672 47.8164 101.133 48.3555C100.617 48.918 99.7969 49.1992 98.6719 49.1992H97.4414C96.5742 49.1992 96.1406 48.7539 96.1406 47.8633C96.1406 47.3945 96.2344 47.043 96.4219 46.8086C96.6328 46.5977 96.9609 46.4922 97.4062 46.4922H98.2148C98.8711 46.4922 99.2227 46.1289 99.2695 45.4023V30.6719C99.2695 30.0391 98.9414 29.6992 98.2852 29.6523H89.6719C89.3438 29.6523 89.0977 29.7344 88.9336 29.8984C88.7695 30.0391 88.6758 30.2969 88.6523 30.6719V47.8984C88.6523 48.9297 88.207 49.4453 87.3164 49.4453ZM81.7266 36.0156V34.0117H75.7852V37.2109L81.7266 36.0156ZM78.9844 49.2695C78.5391 49.2695 78.2109 49.1641 78 48.9531C77.8125 48.7656 77.7188 48.4609 77.7188 48.0391C77.7188 47.2188 78.1406 46.8086 78.9844 46.8086H80.3906C81.2344 46.8086 81.6797 46.3633 81.7266 45.4727L81.7617 40.2695C80.332 41.8164 78.4922 43.3281 76.2422 44.8047C74.1094 46.2109 72.7734 46.9141 72.2344 46.9141C71.4141 46.9141 71.0039 46.4922 71.0039 45.6484C71.0039 45.1328 71.5547 44.6055 72.6562 44.0664C76.0781 42.4258 78.8672 40.457 81.0234 38.1602L80.9531 38.0547C78.9141 38.7344 76.7812 39.3789 74.5547 39.9883L72.0938 40.5156C71.3203 40.5156 70.9336 40.082 70.9336 39.2148C70.9336 38.8633 71.1445 38.5586 71.5664 38.3008C72.0117 38.043 72.6211 37.8672 73.3945 37.7734V23.8867C73.3945 22.9727 73.6289 22.3047 74.0977 21.8828C74.5664 21.4609 75.293 21.25 76.2773 21.25L76.875 18.8594C77.1328 17.875 77.5781 17.3828 78.2109 17.3828C79.1016 17.3828 79.5469 17.7695 79.5469 18.543C79.5469 18.918 79.207 19.8203 78.5273 21.25H81.4805C83.2617 21.25 84.1523 22.1406 84.1523 23.9219V34.5742C84.9023 34.5742 85.2773 34.9023 85.2773 35.5586C85.2773 35.8867 84.9258 36.5312 84.2227 37.4922L84.1523 37.5625V46.0703C84.1523 47.2188 83.8945 48.0508 83.3789 48.5664C82.8633 49.1055 82.043 49.3398 80.918 49.2695H78.9844ZM81.7266 31.6914V28.8438H75.7852V31.6914H81.7266ZM81.7266 26.5234V24.8359C81.7266 24.1562 81.3633 23.793 80.6367 23.7461H76.9102C76.5586 23.7461 76.2773 23.8398 76.0664 24.0273C75.8789 24.2148 75.7852 24.4844 75.7852 24.8359V26.5234H81.7266ZM92.7656 43.75C91.1016 43.75 90.2695 42.8945 90.2695 41.1836V35.0664C90.2695 33.3555 91.1016 32.5 92.7656 32.5H95.2617C96.9258 32.5 97.7578 33.3555 97.7578 35.0664V41.1836C97.7578 42.8945 96.9258 43.75 95.2617 43.75H92.7656ZM94.6641 41.2539C94.9453 41.2539 95.1562 41.1836 95.2969 41.043C95.4375 40.9023 95.5195 40.668 95.543 40.3398V35.9102C95.543 35.3711 95.25 35.0781 94.6641 35.0312H93.3633C93.082 35.0312 92.8711 35.1016 92.7305 35.2422C92.5898 35.3828 92.5078 35.6055 92.4844 35.9102V40.3398C92.4844 40.9492 92.7773 41.2539 93.3633 41.2539H94.6641ZM89.6016 25.293C88.9922 25.293 88.3594 24.6133 87.7031 23.2539L86.9297 21.6719C86.6016 21.0156 86.4375 20.582 86.4375 20.3711C86.4375 19.668 86.9062 19.3164 87.8438 19.3164C88.3359 19.3164 89.0391 20.0781 89.9531 21.6016C90.3281 22.2109 90.5977 22.7383 90.7617 23.1836C90.9492 23.6289 91.043 23.9453 91.043 24.1328C91.043 24.9062 90.5625 25.293 89.6016 25.293ZM99.2344 25.3984C98.2734 25.3984 97.793 25 97.793 24.2031C97.793 24.0391 97.8633 23.8164 98.0039 23.5352C98.1445 23.2305 98.25 22.9844 98.3203 22.7969C99.0234 21.25 99.3867 20.4297 99.4102 20.3359C99.7617 19.5391 100.277 19.1406 100.957 19.1406C101.941 19.1406 102.434 19.5508 102.434 20.3711C102.434 20.7695 102.035 21.707 101.238 23.1836C100.441 24.6602 99.7734 25.3984 99.2344 25.3984ZM108.023 39.5664C107.156 39.5664 106.723 39.0859 106.723 38.125C106.723 37.5156 107.273 36.9062 108.375 36.2969C110.719 34.9844 112.781 33.3203 114.562 31.3047H108.48C107.52 31.3047 107.039 30.8945 107.039 30.0742C107.039 29.2539 107.52 28.8438 108.48 28.8438H116.426C117.105 27.9062 117.773 26.7344 118.43 25.3281H110.977C110.531 25.3281 110.18 25.2227 109.922 25.0117C109.664 24.8008 109.535 24.4961 109.535 24.0977C109.535 23.7227 109.652 23.4297 109.887 23.2188C110.145 23.0078 110.508 22.9023 110.977 22.9023H119.414C119.789 21.7539 120.141 20.4414 120.469 18.9648C120.633 18.2852 120.832 17.8164 121.066 17.5586C121.324 17.2773 121.664 17.1367 122.086 17.1367C122.578 17.1367 122.941 17.2305 123.176 17.418C123.41 17.6055 123.527 17.8984 123.527 18.2969C123.527 18.9531 123.105 20.4883 122.262 22.9023H134.918C135.387 22.9023 135.738 23.0078 135.973 23.2188C136.23 23.4297 136.359 23.7227 136.359 24.0977C136.359 24.4961 136.23 24.8008 135.973 25.0117C135.715 25.2227 135.363 25.3281 134.918 25.3281H127.289C127.734 26.7109 128.273 27.8828 128.906 28.8438H137.309C138.27 28.8438 138.75 29.2539 138.75 30.0742C138.75 30.8945 138.27 31.3047 137.309 31.3047H130.84C132.621 33.3438 134.871 34.9258 137.59 36.0508C138.738 36.5195 139.312 37.0938 139.312 37.7734C139.312 38.7578 138.844 39.25 137.906 39.25C137.484 39.25 136.887 39.0508 136.113 38.6523C135.34 38.2305 134.32 37.5859 133.055 36.7188C130.992 35.3125 129.188 33.5078 127.641 31.3047H117.973C116.191 33.7422 114.34 35.6875 112.418 37.1406C110.262 38.7578 108.797 39.5664 108.023 39.5664ZM125.039 48.6719C122.508 48.6719 120.633 48.6602 119.414 48.6367C118.195 48.6133 117.234 48.543 116.531 48.4258C114.562 48.1211 113.578 47.2539 113.578 45.8242V37.8789C113.578 36.7539 113.824 35.9453 114.316 35.4531C114.809 34.9375 115.605 34.7148 116.707 34.7852H128.836C129.984 34.7852 130.816 35.043 131.332 35.5586C131.871 36.0508 132.105 36.8477 132.035 37.9492V40.1289C132.035 41.3945 131.59 42.3086 130.699 42.8711C129.809 43.457 127.934 43.75 125.074 43.75C124.02 43.75 123.492 43.293 123.492 42.3789C123.492 41.5586 124.055 41.1367 125.18 41.1133L127.746 41.0078C128.215 40.9844 128.555 40.8789 128.766 40.6914C129 40.5039 129.129 40.1875 129.152 39.7422V38.3008C129.152 37.6211 128.789 37.2695 128.062 37.2461H117.48C116.824 37.2461 116.473 37.5977 116.426 38.3008V44.6992C116.426 45.0039 116.496 45.2617 116.637 45.4727C116.801 45.6602 117.023 45.7656 117.305 45.7891C118.195 45.8828 121.172 45.9297 126.234 45.9297C130.102 45.9297 132.398 45.8242 133.125 45.6133C133.641 45.4727 133.934 44.6875 134.004 43.2578C134.027 42.4844 134.52 42.0977 135.48 42.0977C136.535 42.0977 137.062 42.5664 137.062 43.5039C137.062 45.332 136.688 46.6211 135.938 47.3711C135.188 48.1211 133.219 48.5312 130.031 48.6016L127.008 48.6719H125.039ZM116.039 23.1484C115.477 23.1484 114.914 22.5859 114.352 21.4609L113.719 20.1953C113.672 20.1016 113.578 19.9141 113.438 19.6328C113.297 19.3281 113.227 19.0586 113.227 18.8242C113.227 18.5664 113.344 18.332 113.578 18.1211C113.812 17.9102 114.07 17.8047 114.352 17.8047C114.68 17.8047 115.02 17.9922 115.371 18.3672C115.723 18.7188 116.109 19.2578 116.531 19.9844C117.141 21.0859 117.445 21.8242 117.445 22.1992C117.445 22.832 116.977 23.1484 116.039 23.1484ZM126.129 28.8438C125.59 27.8125 125.098 26.6406 124.652 25.3281H121.383C120.844 26.5938 120.258 27.7656 119.625 28.8438H126.129ZM129.293 23.2891C128.895 23.2891 128.578 23.1953 128.344 23.0078C128.133 22.8203 128.027 22.5742 128.027 22.2695C128.027 21.8945 128.133 21.4727 128.344 21.0039C128.742 20.0898 129 19.4453 129.117 19.0703C129.375 18.3672 129.797 18.0156 130.383 18.0156C130.805 18.0156 131.133 18.1094 131.367 18.2969C131.625 18.4609 131.754 18.6953 131.754 19C131.754 19.2578 131.684 19.6445 131.543 20.1602C131.402 20.6523 131.25 21.0508 131.086 21.3555C130.711 22.0352 130.395 22.5273 130.137 22.832C129.879 23.1367 129.598 23.2891 129.293 23.2891Z" fill="#1C1917"/>
</svg>
